# xmcd CD database file
#
# Track frame offsets:
#	150
#	15832
#	28411
#	41310
#	58041
#	71731
#	90401
#	105228
#	115981
#	130585
#	139187
#	151188
#	157549
#	174108
#
# Disc length: 2582 seconds
#
# Revision: 0
# Processed by: cddbd v1.5PL3 Copyright (c) Steve Scherf et al.
# Submitted via: CDex 1.51
#
DISCID=9a0a140e
DTITLE=Homesick Mac - Leaving
DYEAR=2003
DGENRE=Blues
TTITLE0=Leaving
TTITLE1=Deep River Blues
TTITLE2=900 Miles
TTITLE3=Lovey's Dream
TTITLE4=Colletta
TTITLE5=Johnny B Goode
TTITLE6=Blue Moon Of Kentucky
TTITLE7=New River Train
TTITLE8=Hedda's Dream
TTITLE9=32-20 Blues
TTITLE10=You Gonna Miss Me
TTITLE11=Alvin's Joy
TTITLE12=Sweet Home Chicago
TTITLE13=Today Today Blues
EXTD=YEAR: 2003
EXTT0=
EXTT1=
EXTT2=
EXTT3=
EXTT4=
EXTT5=
EXTT6=
EXTT7=
EXTT8=
EXTT9=
EXTT10=
EXTT11=
EXTT12=
EXTT13=
PLAYORDER=
